<?xml version="1.0" encoding="utf-8"?>
<!-- Generator: Adobe Illustrator 26.0.1, SVG Export Plug-In . SVG Version: 6.00 Build 0)  -->
<svg version="1.1" id="Layer_1" xmlns="http://www.w3.org/2000/svg" xmlns:xlink="http://www.w3.org/1999/xlink" x="0px" y="0px"
	 viewBox="0 0 122.9 110.3" style="enable-background:new 0 0 122.9 110.3;" xml:space="preserve">
<style type="text/css">
	.st0{fill:#FFFFFF;}
	.st1{opacity:0.5;fill:#FFFFFF;enable-background:new    ;}
</style>
<g>
	<path class="st0" d="M55.6,79.8c-2.2,10.1-8.7,15.2-8.8,20.3c0,5.1,2.2,10.2,8.8,10.2s8.8-5.1,8.8-10.2C64.4,95,57.8,90,55.6,79.8z
		 M75.1,52.9C72.9,64,66.3,69.5,66.3,75c0,1,0.1,2,0.2,2.9c0.7,4.4,3.2,8.1,8.6,8.1c5.3,0,7.7-3.5,8.5-7.7c0.2-1.1,0.3-2.2,0.3-3.3
		C83.9,69.5,77.3,63.9,75.1,52.9z M45.7,51.8c-1.5,7.4-6.3,11-6.3,14.6c0,3.6,1.6,7.3,6.3,7.3s6.3-3.6,6.3-7.3
		C52,62.8,47.3,59.1,45.7,51.8z"/>
</g>
<path class="st1" d="M118,32.3c-0.9-1.4-1.9-2.8-3-3.9c-5.1-5.5-11.6-8-18.3-8c-1.6,0-3.2,0.2-4.8,0.4c-4-7.9-10.1-13.5-17.1-16.9
	c-6.5-3.1-13.6-4.3-20.6-3.6S40.4,3.5,34.8,7.9c-6,4.6-10.7,11.4-12.9,20.1c-1.9,0.5-3.8,1-5.5,1.7c-2.5,0.9-4.7,2.1-6.6,3.5
	c-1.6,1.2-3.1,2.5-4.3,4C1.7,41.7,0,47.3,0,53c0,5.6,1.8,11.2,5.1,15.9c1.2,1.7,2.7,3.3,4.4,4.7c1.8,1.4,3.8,2.7,6.1,3.6
	c2.2,0.9,4.6,1.6,7.3,1.9c1.6,0.2,4.1,0.7,6.3,0.7l37.3-1.9c-0.2-1-0.2-2-0.2-2.9c0-5.5,6.6-11,8.8-22.1c2.2,11,8.8,16.6,8.8,22.1
	c0,1.1-0.5,3.7-0.7,4.8h10.6c2.3-0.5,2.3-0.5,3.4-0.7c4.4-1,8.3-2.4,11.7-4.3c3.5-1.9,6.4-4.4,8.7-7.4c3.4-4.6,5.1-10.9,5.2-17.2
	C122.8,43.8,121.2,37.2,118,32.3z M45.7,73.7c-4.7,0-6.3-3.7-6.3-7.3c0-3.6,4.8-7.2,6.3-14.6c1.6,7.3,6.3,11,6.3,14.6
	C52,70.1,50.4,73.7,45.7,73.7z"/>
<path class="st1" d="M52,66.4c0,3.7-1.6,7.3-6.3,7.3s-6.3-3.7-6.3-7.3c0-3.6,4.8-7.2,6.3-14.6C47.3,59.1,52,62.8,52,66.4z"/>
<path class="st1" d="M83.9,75c0,1.1-0.1,2.2-0.3,3.3l-17.1-0.4c-0.2-1-0.2-2-0.2-2.9c0-5.5,6.6-11,8.8-22.1
	C77.3,63.9,83.9,69.5,83.9,75z"/>
</svg>
