<?xml version="1.0" encoding="utf-8"?>
<!-- Generator: Adobe Illustrator 26.0.1, SVG Export Plug-In . SVG Version: 6.00 Build 0)  -->
<svg version="1.1" id="Layer_1" xmlns="http://www.w3.org/2000/svg" xmlns:xlink="http://www.w3.org/1999/xlink" x="0px" y="0px"
	 viewBox="0 0 119.8 122.9" style="enable-background:new 0 0 119.8 122.9;" xml:space="preserve">
<g>
	<path d="M52.9,24.4c8,0,15.3,3.3,20.6,8.5c5.3,5.3,8.5,12.5,8.5,20.6c0,7.7-3,14.7-7.9,19.9c0.1,0.1,0.2,0.1,0.3,0.2l21,20.9
		c0.9,0.9,0.9,2.3,0,3.2c-0.9,0.9-2.3,0.9-3.2,0l-21-20.9c-0.1-0.1-0.2-0.3-0.3-0.4c-4.9,3.9-11.2,6.2-18,6.2
		c-8,0-15.3-3.3-20.6-8.5c-5.3-5.3-8.5-12.5-8.5-20.6s3.3-15.3,8.5-20.6C37.6,27.7,44.9,24.4,52.9,24.4L52.9,24.4z M70.3,36.2
		C65.8,31.8,59.7,29,52.9,29S40,31.8,35.6,36.2s-7.2,10.6-7.2,17.3s2.7,12.9,7.2,17.3C40,75.3,46.2,78,52.9,78
		c6.8,0,12.9-2.7,17.3-7.2c4.4-4.4,7.2-10.6,7.2-17.3C77.4,46.8,74.7,40.6,70.3,36.2L70.3,36.2z"/>
</g>
</svg>
